0
SECTION
2
HEADER
9
$INSUNITS
70
5
9
$ACADVER
1
AC1014
9
$HANDSEED
5
FFFF
0
ENDSEC
0
SECTION
2
TABLES
0
TABLE
2
VPORT
5
8
100
AcDbSymbolTable
0
ENDTAB
0
TABLE
2
LTYPE
5
5
100
AcDbSymbolTable
0
LTYPE
5
14
100
AcDbSymbolTableRecord
100
AcDbLinetypeTableRecord
2
BYBLOCK
70
0
0
LTYPE
5
15
100
AcDbSymbolTableRecord
100
AcDbLinetypeTableRecord
2
BYLAYER
70
0
0
ENDTAB
0
TABLE
2
LAYER
5
2
100
AcDbSymbolTable
70
2
0
LAYER
5
50
100
AcDbSymbolTableRecord
100
AcDbLayerTableRecord
2
0
70
0
6
CONTINUOUS
0
ENDTAB
0
TABLE
2
STYLE
5
3
100
AcDbSymbolTable
70
1
0
STYLE
5
11
100
AcDbSymbolTableRecord
100
AcDbTextStyleTableRecord
2
STANDARD
70
0
0
ENDTAB
0
TABLE
2
VIEW
5
6
100
AcDbSymbolTable
70
0
0
ENDTAB
0
TABLE
2
UCS
5
7
100
AcDbSymbolTable
70
0
0
ENDTAB
0
TABLE
2
APPID
5
9
100
AcDbSymbolTable
70
2
0
APPID
5
12
100
AcDbSymbolTableRecord
100
AcDbRegAppTableRecord
2
ACAD
70
0
0
ENDTAB
0
TABLE
2
DIMSTYLE
5
A
100
AcDbSymbolTable
70
1
0
ENDTAB
0
TABLE
2
BLOCK_RECORD
5
1
100
AcDbSymbolTable
70
1
0
BLOCK_RECORD
5
1F
100
AcDbSymbolTableRecord
100
AcDbBlockTableRecord
2
*MODEL_SPACE
0
BLOCK_RECORD
5
1B
100
AcDbSymbolTableRecord
100
AcDbBlockTableRecord
2
*PAPER_SPACE
0
ENDTAB
0
ENDSEC
0
SECTION
2
BLOCKS
0
BLOCK
5
20
100
AcDbEntity
100
AcDbBlockBegin
2
*MODEL_SPACE
0
ENDBLK
5
21
100
AcDbEntity
100
AcDbBlockEnd
0
BLOCK
5
1C
100
AcDbEntity
100
AcDbBlockBegin
2
*PAPER_SPACE
0
ENDBLK
5
1D
100
AcDbEntity
100
AcDbBlockEnd
0
ENDSEC
0
SECTION
2
ENTITIES
0
CIRCLE
5
100
100
AcDbEntity
8
0
100
AcDbCircle
10
-2.0000041000021898
20
-5.1149997606817843
30
0
40
0.099999999999999645
210
0
220
0
230
1
0
CIRCLE
5
101
100
AcDbEntity
8
0
100
AcDbCircle
10
4.750000368780273
20
-5.1149990731814778
30
0
40
0.099999999999999645
210
0
220
0
230
1
0
CIRCLE
5
102
100
AcDbEntity
8
0
100
AcDbCircle
10
2.5000003918473173
20
-5.1149994797668636
30
0
40
0.099999999999999645
210
0
220
0
230
1
0
CIRCLE
5
103
100
AcDbEntity
8
0
100
AcDbCircle
10
-4.2499996278085721
20
-5.1150007488407976
30
0
40
0.10000000000000053
210
0
220
0
230
1
0
CIRCLE
5
104
100
AcDbEntity
8
0
100
AcDbCircle
10
7.0000000915298397
20
-5.1324987954354135
30
0
40
0.099999999999999645
210
0
220
0
230
1
0
CIRCLE
5
105
100
AcDbEntity
8
0
100
AcDbCircle
10
-6.4999996427470093
20
-5.1150011532280457
30
0
40
0.099999999999999645
210
0
220
0
230
1
0
CIRCLE
5
106
100
AcDbEntity
8
0
100
AcDbCircle
10
-8.7499996521646199
20
-5.1150015534307522
30
0
40
0.099999999999999645
210
0
220
0
230
1
0
CIRCLE
5
107
100
AcDbEntity
8
0
100
AcDbCircle
10
0.24999960869845833
20
-5.1149999968557447
30
0
40
0.10000000000000003
210
0
220
0
230
1
0
LWPOLYLINE
5
108
100
AcDbEntity
8
0
100
AcDbPolyline
90
10
70
1
43
0.0
10
8.6649692777986225
20
-4.6984792193917668
10
8.391887206998847
20
-5.2055943703088605
42
-0.27590128864358304
10
8.1250011392733388
20
-5.3649968707559577
10
-9.8750010052063129
20
-5.3650033080586832
42
-0.27590352911205701
10
-10.141892182783147
20
-5.2055965068836025
10
-10.414984779488405
20
-4.6984624873929244
42
0.1479442946606957
10
-10.750003729643485
20
-4.3650025578358393
10
-10.750003729643485
20
-3.3650025578358389
10
8.9999888860229973
20
-3.3650025578358389
10
8.9999888860229831
20
-4.3650194669824343
42
0.14794440630913153
0
ARC
5
109
100
AcDbEntity
8
0
100
AcDbCircle
10
9.2376818493183528
20
5.0138749973722732
30
0
40
0.81624165389562386
210
0
220
0
230
1
100
AcDbArc
50
208.30260427652999
51
241.96478765178736
0
ARC
5
110
100
AcDbEntity
8
0
100
AcDbCircle
10
6.7204030612299537
20
5.0138534873815992
30
0
40
0.8162416538956202
210
0
220
0
230
1
100
AcDbArc
50
298.03528353723294
51
331.69746565428306
0
ARC
5
111
100
AcDbEntity
8
0
100
AcDbCircle
10
7.9790477639296586
20
4.9902657390366745
30
0
40
0.30312369984495968
210
0
220
0
230
1
100
AcDbArc
50
90.00002303940272
51
151.69746565428309
0
LINE
5
112
100
AcDbEntity
8
0
100
AcDbLine
10
7.4390682350297253
20
4.6268511546733802
30
0
11
7.7121605677271443
21
5.1339849162916806
31
0
0
ARC
5
113
100
AcDbEntity
8
0
100
AcDbCircle
10
5.7309706611263938
20
4.9902715555628339
30
0
40
0.30312478784490088
210
0
220
-0
230
1
100
AcDbArc
50
28.456644029456459
51
90.363486000060107
0
LINE
5
114
100
AcDbEntity
8
0
100
AcDbLine
10
6.2695649055047769
20
4.6269607249908944
30
0
11
5.9974712843846429
21
5.1347085827026255
31
0
0
ARC
5
115
100
AcDbEntity
8
0
100
AcDbCircle
10
6.9882411783053868
20
5.0139424460936954
30
0
40
0.81624165389562353
210
0
220
0
230
1
100
AcDbArc
50
208.30089109247015
51
241.96257718991188
0
ARC
5
116
100
AcDbEntity
8
0
100
AcDbCircle
10
3.4790475336348274
20
4.9902678696874165
30
0
40
0.30312478784489871
210
0
220
-0
230
1
100
AcDbArc
50
28.302476830223082
51
89.999979509432649
0
LINE
5
117
100
AcDbEntity
8
0
100
AcDbLine
10
4.0190282091534231
20
4.6268522312872165
30
0
11
3.7459358320445211
21
5.1339872948810665
31
0
0
ARC
5
118
100
AcDbEntity
8
0
100
AcDbCircle
10
4.7376937923937543
20
5.0138538036614051
30
0
40
0.81624165389562175
210
0
220
0
230
1
100
AcDbArc
50
208.30247372789356
51
241.96465822868726
0
ARC
5
119
100
AcDbEntity
8
0
100
AcDbCircle
10
5.7290477601336436
20
4.9902663474088094
30
0
40
0.30312389613551882
210
0
220
0
230
1
100
AcDbArc
50
90.00002232181923
51
151.6974669149005
0
ARC
5
120
100
AcDbEntity
8
0
100
AcDbCircle
10
4.4704025146007123
20
5.013854744692555
30
0
40
0.8162422558984318
210
0
220
0
230
1
100
AcDbArc
50
298.03524279045342
51
331.69746691490087
0
LINE
5
121
100
AcDbEntity
8
0
100
AcDbLine
10
5.1890682269525072
20
4.6268521423704883
30
0
11
5.4621603879437508
21
5.1339856118584652
31
0
0
ARC
5
122
100
AcDbEntity
8
0
100
AcDbCircle
10
2.2204014611111598
20
5.013854984579746
30
0
40
0.81624172644098625
210
0
220
0
230
1
100
AcDbArc
50
298.03530014788259
51
331.69748141410781
0
ARC
5
123
100
AcDbEntity
8
0
100
AcDbCircle
10
3.4790476147217273
20
4.9902678169881067
30
0
40
0.30312478784489871
210
0
220
-0
230
1
100
AcDbArc
50
89.999978680069233
51
151.69748141410741
0
LINE
5
124
100
AcDbEntity
8
0
100
AcDbLine
10
2.9390668052331259
20
4.6268528151524713
30
0
11
3.212159421051072
21
5.1339874366829488
31
0
0
ARC
5
125
100
AcDbEntity
8
0
100
AcDbCircle
10
2.487693542301447
20
5.0138542207305612
30
0
40
0.81624165389562142
210
0
220
0
230
1
100
AcDbArc
50
208.30247802221342
51
241.96466140987368
0
ARC
5
126
100
AcDbEntity
8
0
100
AcDbCircle
10
1.2290479382274653
20
4.9902670650247547
30
0
40
0.30312478784489733
210
0
220
-0
230
1
100
AcDbArc
50
28.302471058604496
51
89.999973436827943
0
LINE
5
127
100
AcDbEntity
8
0
100
AcDbLine
10
1.769027988066894
20
4.6268525944923731
30
0
11
1.4959362511145526
21
5.1339864633337449
31
0
0
ARC
5
128
100
AcDbEntity
8
0
100
AcDbCircle
10
-1.0209585676799549
20
4.9902676736757527
30
0
40
0.30312498385912634
210
0
220
-0
230
1
100
AcDbArc
50
28.302504733938918
51
89.999997533230726
0
LINE
5
129
100
AcDbEntity
8
0
100
AcDbLine
10
-0.48097893219401011
20
4.6268549716880294
30
0
11
-0.75407016668131077
21
5.1339873217826923
31
0
0
ARC
5
130
100
AcDbEntity
8
0
100
AcDbCircle
10
0.23769023972374376
20
5.0138498797802544
30
0
40
0.81624165389562164
210
0
220
0
230
1
100
AcDbArc
50
208.30194241780225
51
241.96468402899291
0
LINE
5
131
100
AcDbEntity
8
0
100
AcDbLine
10
-0.14595615650449789
20
4.2933876113625811
30
0
11
0.3540489759724007
21
4.2933868986735693
31
0
0
ARC
5
132
100
AcDbEntity
8
0
100
AcDbCircle
10
-0.029595366413192825
20
5.0138502607593729
30
0
40
0.81624165389451564
210
0
220
0
230
1
100
AcDbArc
50
298.0351526363936
51
331.6978942475842
0
ARC
5
133
100
AcDbEntity
8
0
100
AcDbCircle
10
1.2290478958710036
20
4.9902674570028562
30
0
40
0.30312439586681145
210
0
220
0
230
1
100
AcDbArc
50
90.000047978394022
51
151.6978942475844
0
LINE
5
134
100
AcDbEntity
8
0
100
AcDbLine
10
0.68907270228488859
20
4.6268533039392601
30
0
11
0.96215901178480645
21
5.1339849678386749
31
0
0
ARC
5
135
100
AcDbEntity
8
0
100
AcDbCircle
10
-3.270953315701135
20
4.9902681712311328
30
0
40
0.30312529096435176
210
0
220
-0
230
1
100
AcDbArc
50
28.302479970861484
51
89.999818970626862
0
LINE
5
136
100
AcDbEntity
8
0
100
AcDbLine
10
-2.7309720435767586
20
4.6268555989656281
30
0
11
-3.0040645821943874
21
5.1339878495963003
31
0
0
ARC
5
137
100
AcDbEntity
8
0
100
AcDbCircle
10
-2.0123064093668876
20
5.0138570766888861
30
0
40
0.81624165389562264
210
0
220
0
230
1
100
AcDbArc
50
208.3024661818265
51
241.96464125822024
0
ARC
5
138
100
AcDbEntity
8
0
100
AcDbCircle
10
-2.2796027920445225
20
5.0138577058836784
30
0
40
0.81624132296372021
210
0
220
0
230
1
100
AcDbArc
50
298.0353219541218
51
331.6974946404298
0
ARC
5
139
100
AcDbEntity
8
0
100
AcDbCircle
10
-1.0209585676799549
20
4.9902676736757563
30
0
40
0.30312472486105385
210
0
220
0
230
1
100
AcDbArc
50
90.000023430132174
51
151.69749464043051
0
LINE
5
140
100
AcDbEntity
8
0
100
AcDbLine
10
-1.5609377138301153
20
4.6268558936545308
30
0
11
-1.2878469671092718
21
5.1339873246969301
31
0
0
ARC
5
141
100
AcDbEntity
8
0
100
AcDbCircle
10
-5.5209532398474543
20
4.9902694790132625
30
0
40
0.30312478784503977
210
0
220
-0
230
1
100
AcDbArc
50
28.302671973336221
51
89.999974389022981
0
LINE
5
142
100
AcDbEntity
8
0
100
AcDbLine
10
-4.9809706681983474
20
4.6268533645160659
30
0
11
-5.2540654309317141
21
5.1339898131982888
31
0
0
ARC
5
143
100
AcDbEntity
8
0
100
AcDbCircle
10
-4.2623051271258792
20
5.0138550151963681
30
0
40
0.81624165389562309
210
0
220
0
230
1
100
AcDbArc
50
208.30247997086664
51
241.96466206539267
0
LINE
5
144
100
AcDbEntity
8
0
100
AcDbLine
10
-4.6459517995345578
20
4.2933928938436825
30
0
11
-4.1459522523932719
21
4.2933927150299311
31
0
0
ARC
5
145
100
AcDbEntity
8
0
100
AcDbCircle
10
-4.529598409487245
20
5.0138551107878833
30
0
40
0.81624165389562264
210
0
220
0
230
1
100
AcDbArc
50
298.03529695347697
51
331.69747904800306
0
ARC
5
146
100
AcDbEntity
8
0
100
AcDbCircle
10
-3.2709516170290067
20
4.9902681712305252
30
0
40
0.30312529096434693
210
0
220
0
230
1
100
AcDbArc
50
90.000140048236119
51
151.69747904800147
0
LINE
5
147
100
AcDbEntity
8
0
100
AcDbLine
10
-3.8109331452200808
20
4.6268529460780883
30
0
11
-3.5378402477393567
21
5.1339880404893634
31
0
0
ARC
5
148
100
AcDbEntity
8
0
100
AcDbCircle
10
-7.7709536652400564
20
4.9902702836761037
30
0
40
0.30312478784489644
210
0
220
-0
230
1
100
AcDbArc
50
28.302467947934076
51
89.999970933125454
0
LINE
5
149
100
AcDbEntity
8
0
100
AcDbLine
10
-7.2309719451196868
20
4.6268525177738056
30
0
11
-7.504065344550237
21
5.1339896674953422
31
0
0
ARC
5
150
100
AcDbEntity
8
0
100
AcDbCircle
10
-6.5123063828338923
20
5.0138541290607641
30
0
40
0.81624165389562131
210
0
220
0
230
1
100
AcDbArc
50
208.30247683022318
51
241.96466071015314
0
LINE
5
151
100
AcDbEntity
8
0
100
AcDbLine
10
-6.8959530722839437
20
4.2933920167826258
30
0
11
-6.3959523458043588
21
4.2933928642631205
31
0
0
ARC
5
152
100
AcDbEntity
8
0
100
AcDbCircle
10
-6.7795985017634575
20
5.0138552606253928
30
0
40
0.81624165389562242
210
0
220
0
230
1
100
AcDbArc
50
298.03529686322452
51
331.69747739006152
0
ARC
5
153
100
AcDbEntity
8
0
100
AcDbCircle
10
-5.5209512073214659
20
4.9902687575182458
30
0
40
0.30312550933918808
210
0
220
0
230
1
100
AcDbArc
50
90.000217489642822
51
151.69747739006226
0
LINE
5
154
100
AcDbEntity
8
0
100
AcDbLine
10
-6.0609332486947967
20
4.6268530751199126
30
0
11
-5.7878400261426082
21
5.1339887380373082
31
0
0
ARC
5
155
100
AcDbEntity
8
0
100
AcDbCircle
10
-9.0286538614111489
20
5.0139665761997563
30
0
40
0.81624165389561887
210
0
220
0
230
1
100
AcDbArc
50
298.03227117888144
51
331.69381437063794
0
ARC
5
156
100
AcDbEntity
8
0
100
AcDbCircle
10
-7.7730332408517331
20
4.990277418238156
30
0
40
0.30312478784489749
210
0
220
-0
230
1
100
AcDbArc
50
89.606892420959269
51
151.58442096021983
0
LINE
5
157
100
AcDbEntity
8
0
100
AcDbLine
10
-8.3100133515379451
20
4.6269184459582622
30
0
11
-8.0396373164539146
21
5.1345234021625616
31
0
0
ARC
5
158
100
AcDbEntity
8
0
100
AcDbCircle
10
-11.279602009191464
20
5.0138575257022975
30
0
40
0.81624165389563352
210
0
220
0
230
1
100
AcDbArc
50
298.0352963585969
51
332.09352598192316
0
ARC
5
159
100
AcDbEntity
8
0
100
AcDbCircle
10
-10.021168176960764
20
4.9991532319445717
30
0
40
0.30273441656276501
210
0
220
-0
230
1
100
AcDbArc
50
89.959095329849518
51
152.09352598193064
0
LINE
5
160
100
AcDbEntity
8
0
100
AcDbLine
10
-10.558278851186813
20
4.6318322133465895
30
0
11
-10.288698441251146
21
5.1408419211900753
31
0
0
LINE
5
161
100
AcDbEntity
8
0
100
AcDbLine
10
-10.89595585957777
20
4.2933951259610854
30
0
11
-10.89595585957777
21
3.2933951259610854
31
0
0
LINE
5
162
100
AcDbEntity
8
0
100
AcDbLine
10
-10.89595585957777
20
3.2933951259610854
30
0
11
8.8540367560887123
21
3.2933951259610854
31
0
0
ARC
5
163
100
AcDbEntity
8
0
100
AcDbCircle
10
-8.7623069226702484
20
5.0138575257022975
30
0
40
0.81624165389563352
210
0
220
0
230
1
100
AcDbArc
50
207.90647401807681
51
241.96470364140308
0
LINE
5
164
100
AcDbEntity
8
0
100
AcDbLine
10
-9.4836300806748994
20
4.6318322133465895
30
0
11
-9.7532104906105666
21
5.1408419211900753
31
0
0
ARC
5
165
100
AcDbEntity
8
0
100
AcDbCircle
10
-10.020740754900949
20
4.9991532319445717
30
0
40
0.30273441656242306
210
0
220
-0
230
1
100
AcDbArc
50
27.906474018069382
51
90.040904670150496
0
LINE
5
166
100
AcDbEntity
8
0
100
AcDbLine
10
-9.1459530722839428
20
4.2933951259610854
30
0
11
-8.6450457522760864
21
4.2934839211968221
31
0
0
LINE
5
167
100
AcDbEntity
8
0
100
AcDbLine
10
8.8540367560886981
20
4.2934120351076821
30
0
11
8.8540367560887123
21
3.2933951259610854
31
0
0
LINE
5
168
100
AcDbEntity
8
0
100
AcDbLine
10
4.3540161356053177
20
4.2934081823716408
30
0
11
4.8540804890149527
21
4.2934086105065585
31
0
0
LINE
5
169
100
AcDbEntity
8
0
100
AcDbLine
10
2.1040202858801704
20
4.2934062560160005
30
0
11
2.6040742414588784
21
4.293406684142016
31
0
0
LINE
5
170
100
AcDbEntity
8
0
100
AcDbLine
10
-2.3959670682290346
20
4.2934024033084413
30
0
11
-1.8959432148686313
21
4.2934028314086836
31
0
0
LINE
5
171
100
AcDbEntity
8
0
100
AcDbLine
10
-9.1459558724131416
20
4.2933966170365645
30
0
11
-9.1374600197442408
21
4.2933966315142529
31
0
0
LINE
5
172
100
AcDbEntity
8
0
100
AcDbLine
10
7.1040490496221471
20
4.2933910017899937
30
0
11
6.6045682900170837
21
4.2934942853307092
31
0
0
ARC
5
173
100
AcDbEntity
8
0
100
AcDbCircle
10
7.9790426417340568
20
4.9902657390535801
30
0
40
0.30312369980660403
210
0
220
-0
230
1
100
AcDbArc
50
28.303067571139231
51
89.999598755090787
0
LINE
5
174
100
AcDbEntity
8
0
100
AcDbLine
10
8.5190171478643375
20
4.6268717875170129
30
0
11
8.2459285003630782
21
5.1339874000803514
31
0
0
ENDSEC
0
SECTION
2
OBJECTS
0
DICTIONARY
5
C
100
AcDbDictionary
3
ACAD_GROUP
350
D
3
ACAD_MLINESTYLE
350
17
0
DICTIONARY
5
D
100
AcDbDictionary
0
DICTIONARY
5
1A
330
C
100
AcDbDictionary
0
DICTIONARY
5
17
100
AcDbDictionary
0
ENDSEC
0
EOF
