0
SECTION
2
HEADER
9
$INSUNITS
70
5
9
$ACADVER
1
AC1014
9
$HANDSEED
5
FFFF
0
ENDSEC
0
SECTION
2
TABLES
0
TABLE
2
VPORT
5
8
100
AcDbSymbolTable
0
ENDTAB
0
TABLE
2
LTYPE
5
5
100
AcDbSymbolTable
0
LTYPE
5
14
100
AcDbSymbolTableRecord
100
AcDbLinetypeTableRecord
2
BYBLOCK
70
0
0
LTYPE
5
15
100
AcDbSymbolTableRecord
100
AcDbLinetypeTableRecord
2
BYLAYER
70
0
0
ENDTAB
0
TABLE
2
LAYER
5
2
100
AcDbSymbolTable
70
2
0
LAYER
5
50
100
AcDbSymbolTableRecord
100
AcDbLayerTableRecord
2
0
70
0
6
CONTINUOUS
0
ENDTAB
0
TABLE
2
STYLE
5
3
100
AcDbSymbolTable
70
1
0
STYLE
5
11
100
AcDbSymbolTableRecord
100
AcDbTextStyleTableRecord
2
STANDARD
70
0
0
ENDTAB
0
TABLE
2
VIEW
5
6
100
AcDbSymbolTable
70
0
0
ENDTAB
0
TABLE
2
UCS
5
7
100
AcDbSymbolTable
70
0
0
ENDTAB
0
TABLE
2
APPID
5
9
100
AcDbSymbolTable
70
2
0
APPID
5
12
100
AcDbSymbolTableRecord
100
AcDbRegAppTableRecord
2
ACAD
70
0
0
ENDTAB
0
TABLE
2
DIMSTYLE
5
A
100
AcDbSymbolTable
70
1
0
ENDTAB
0
TABLE
2
BLOCK_RECORD
5
1
100
AcDbSymbolTable
70
1
0
BLOCK_RECORD
5
1F
100
AcDbSymbolTableRecord
100
AcDbBlockTableRecord
2
*MODEL_SPACE
0
BLOCK_RECORD
5
1B
100
AcDbSymbolTableRecord
100
AcDbBlockTableRecord
2
*PAPER_SPACE
0
ENDTAB
0
ENDSEC
0
SECTION
2
BLOCKS
0
BLOCK
5
20
100
AcDbEntity
100
AcDbBlockBegin
2
*MODEL_SPACE
0
ENDBLK
5
21
100
AcDbEntity
100
AcDbBlockEnd
0
BLOCK
5
1C
100
AcDbEntity
100
AcDbBlockBegin
2
*PAPER_SPACE
0
ENDBLK
5
1D
100
AcDbEntity
100
AcDbBlockEnd
0
ENDSEC
0
SECTION
2
ENTITIES
0
LINE
5
100
100
AcDbEntity
8
0
100
AcDbLine
10
0
20
0
30
0
11
0
21
-1.135
31
0
0
LINE
5
101
100
AcDbEntity
8
0
100
AcDbLine
10
0
20
0
30
0
11
1
21
1.8369701987210307e-16
31
0
0
LINE
5
102
100
AcDbEntity
8
0
100
AcDbLine
10
1.0000000000000007
20
-1.1349999999999998
30
0
11
1
21
1.8369701987210307e-16
31
0
0
LINE
5
103
100
AcDbEntity
8
0
100
AcDbLine
10
0.5
20
9.1848509936051534e-17
30
0
11
0.50000000000000033
21
-1.135
31
0
0
LINE
5
104
100
AcDbEntity
8
0
100
AcDbLine
10
2.2500000000000027
20
-1.1349999999999947
30
0
11
2.2500000000000022
21
-5.9764423178964631e-15
31
0
0
LINE
5
105
100
AcDbEntity
8
0
100
AcDbLine
10
2.2500000000000022
20
-5.9764423178964631e-15
30
0
11
3.2500000000000022
21
-6.6499980592523736e-15
31
0
0
LINE
5
106
100
AcDbEntity
8
0
100
AcDbLine
10
3.2500000000000022
20
-6.6499980592523736e-15
30
0
11
3.2500000000000027
21
-1.1349999999999949
31
0
0
LINE
5
107
100
AcDbEntity
8
0
100
AcDbLine
10
2.7500000000000027
20
-1.1349999999999947
30
0
11
2.7500000000000022
21
-6.3132201702006685e-15
31
0
0
LINE
5
108
100
AcDbEntity
8
0
100
AcDbLine
10
4.4999999925494194
20
-7.4919427108847883e-15
30
0
11
4.4999999925494194
21
-1.1349999999999958
31
0
0
LINE
5
109
100
AcDbEntity
8
0
100
AcDbLine
10
5.5000000074505806
20
-1.1349999999999953
30
0
11
5.5000000074505806
21
-7.4307103700149863e-15
31
0
0
LINE
5
110
100
AcDbEntity
8
0
100
AcDbLine
10
5.5000000074505806
20
-7.4307103700149863e-15
30
0
11
4.4999999925494194
21
-7.4919427108847883e-15
31
0
0
LINE
5
111
100
AcDbEntity
8
0
100
AcDbLine
10
6.7499999925494203
20
-7.3541699459807097e-15
30
0
11
6.7499999925494212
21
-1.1349999999999953
31
0
0
LINE
5
112
100
AcDbEntity
8
0
100
AcDbLine
10
7.7500000074505797
20
-1.1349999999999933
30
0
11
7.7500000074505806
21
-7.2929376051109109e-15
31
0
0
LINE
5
113
100
AcDbEntity
8
0
100
AcDbLine
10
6.7499999925494203
20
-7.3541699459807097e-15
30
0
11
7.7500000074505806
21
-7.2929376051109109e-15
31
0
0
LINE
5
114
100
AcDbEntity
8
0
100
AcDbLine
10
8.9999999925494194
20
-7.4098358325321896e-15
30
0
11
8.9999999925494194
21
-1.1349999999999936
31
0
0
LINE
5
115
100
AcDbEntity
8
0
100
AcDbLine
10
10.000000007450581
20
-1.1349999999999909
30
0
11
10.000000007450581
21
-7.1551648349300706e-15
31
0
0
LINE
5
116
100
AcDbEntity
8
0
100
AcDbLine
10
8.9999999925494194
20
-7.4098358325321896e-15
30
0
11
10.000000007450581
21
-7.1551648349300706e-15
31
0
0
LINE
5
117
100
AcDbEntity
8
0
100
AcDbLine
10
11.250000020996749
20
3.8372796764647001e-15
30
0
11
11.250000020996749
21
-1.1349999999999958
31
0
0
LINE
5
118
100
AcDbEntity
8
0
100
AcDbLine
10
12.25000003589791
20
-1.1349999999999958
30
0
11
12.25000003589791
21
4.2659060625533059e-15
31
0
0
LINE
5
119
100
AcDbEntity
8
0
100
AcDbLine
10
12.25000003589791
20
4.2659060625533059e-15
30
0
11
11.250000020996749
21
3.8372796764647001e-15
31
0
0
LINE
5
120
100
AcDbEntity
8
0
100
AcDbLine
10
13.500000019828157
20
-2.5369690211021942e-16
30
0
11
13.500000019828153
21
-1.1350000000000013
31
0
0
LINE
5
121
100
AcDbEntity
8
0
100
AcDbLine
10
14.500000034729329
20
-1.1349999999999991
30
0
11
14.500000034729316
21
1.1369714310858526e-16
31
0
0
LINE
5
122
100
AcDbEntity
8
0
100
AcDbLine
10
14.500000034729316
20
1.1369714310858526e-16
30
0
11
13.500000019828157
21
-2.5369690211021942e-16
31
0
0
LINE
5
123
100
AcDbEntity
8
0
100
AcDbLine
10
15.750000019828146
20
3.5016731344759662e-15
30
0
11
15.750000019828141
21
-1.1349999999999958
31
0
0
LINE
5
124
100
AcDbEntity
8
0
100
AcDbLine
10
16.750000034729332
20
-1.1349999999999958
30
0
11
16.750000034729332
21
9.1399967966355982e-16
31
0
0
LINE
5
125
100
AcDbEntity
8
0
100
AcDbLine
10
16.750000034729332
20
9.1399967966355982e-16
30
0
11
15.750000019828146
21
3.5016731344759662e-15
31
0
0
LINE
5
126
100
AcDbEntity
8
0
100
AcDbLine
10
5
20
-1.1349999999999956
30
0
11
5
21
-7.4613265421202277e-15
31
0
0
LINE
5
127
100
AcDbEntity
8
0
100
AcDbLine
10
7.25
20
-1.1349999999999945
30
0
11
7.25
21
-7.3235537772161507e-15
31
0
0
LINE
5
128
100
AcDbEntity
8
0
100
AcDbLine
10
9.5
20
-1.1349999999999922
30
0
11
9.5
21
-7.2825003406782321e-15
31
0
0
LINE
5
129
100
AcDbEntity
8
0
100
AcDbLine
10
11.75000002844733
20
4.051592869509003e-15
30
0
11
11.75000002844733
21
-1.1349999999999958
31
0
0
LINE
5
130
100
AcDbEntity
8
0
100
AcDbLine
10
14.000000027278737
20
-1.1350000000000002
30
0
11
14.000000027278737
21
-6.9999879500817078e-17
31
0
0
LINE
5
131
100
AcDbEntity
8
0
100
AcDbLine
10
16.250000027278737
20
-1.1349999999999958
30
0
11
16.250000027278737
21
2.207836407069763e-15
31
0
0
LINE
5
132
100
AcDbEntity
8
0
100
AcDbLine
10
15.750000019828141
20
-1.1349999999999958
30
0
11
14.500000034729329
21
-1.1349999999999991
31
0
0
LINE
5
133
100
AcDbEntity
8
0
100
AcDbLine
10
13.500000019828153
20
-1.1350000000000013
30
0
11
12.25000003589791
21
-1.1349999999999958
31
0
0
LINE
5
134
100
AcDbEntity
8
0
100
AcDbLine
10
11.250000020996749
20
-1.1349999999999958
30
0
11
10.000000007450581
21
-1.1349999999999909
31
0
0
LINE
5
135
100
AcDbEntity
8
0
100
AcDbLine
10
8.9999999925494194
20
-1.1349999999999936
30
0
11
7.7500000074505797
21
-1.1349999999999933
31
0
0
LINE
5
136
100
AcDbEntity
8
0
100
AcDbLine
10
6.7499999925494212
20
-1.1349999999999953
30
0
11
5.5000000074505806
21
-1.1349999999999953
31
0
0
LINE
5
137
100
AcDbEntity
8
0
100
AcDbLine
10
4.4999999925494194
20
-1.1349999999999958
30
0
11
3.2500000000000027
21
-1.1349999999999949
31
0
0
LINE
5
138
100
AcDbEntity
8
0
100
AcDbLine
10
2.2500000000000027
20
-1.1349999999999947
30
0
11
1.0000000000000007
21
-1.1349999999999998
31
0
0
LINE
5
139
100
AcDbEntity
8
0
100
AcDbLine
10
0
20
-1.135
30
0
11
5.5109105961630915e-16
21
-4.1349999999999998
31
0
0
LINE
5
140
100
AcDbEntity
8
0
100
AcDbLine
10
5.5109105961630915e-16
20
-4.1349999999999998
30
0
11
1
21
-4.1349999999999998
31
0
0
LINE
5
141
100
AcDbEntity
8
0
100
AcDbLine
10
1
20
-4.1349999999999998
30
0
11
1
21
-2.1349999999999998
31
0
0
LINE
5
142
100
AcDbEntity
8
0
100
AcDbLine
10
1
20
-2.1349999999999998
30
0
11
2.2500000000000027
21
-2.1349999999999993
31
0
0
LINE
5
143
100
AcDbEntity
8
0
100
AcDbLine
10
2.2500000000000027
20
-2.1349999999999993
30
0
11
2.2500000000000027
21
-4.1349999999999998
31
0
0
LINE
5
144
100
AcDbEntity
8
0
100
AcDbLine
10
2.2500000000000027
20
-4.1349999999999998
30
0
11
3.2500000000000027
21
-4.1349999999999998
31
0
0
LINE
5
145
100
AcDbEntity
8
0
100
AcDbLine
10
3.2500000000000027
20
-4.1349999999999998
30
0
11
3.2500000000000027
21
-2.1349999999999998
31
0
0
LINE
5
146
100
AcDbEntity
8
0
100
AcDbLine
10
3.2500000000000027
20
-2.1349999999999998
30
0
11
4.5000000670552254
21
-2.1349999999999998
31
0
0
LINE
5
147
100
AcDbEntity
8
0
100
AcDbLine
10
4.5000000670552254
20
-2.1349999999999998
30
0
11
4.5000000670552254
21
-4.1349999999999998
31
0
0
LINE
5
148
100
AcDbEntity
8
0
100
AcDbLine
10
4.5000000670552254
20
-4.1349999999999998
30
0
11
5.5000000819563866
21
-4.1349999999999998
31
0
0
LINE
5
149
100
AcDbEntity
8
0
100
AcDbLine
10
5.5000000819563866
20
-4.1349999999999998
30
0
11
5.5000000819563866
21
-2.1349999999999998
31
0
0
LINE
5
150
100
AcDbEntity
8
0
100
AcDbLine
10
5.5000000819563866
20
-2.1349999999999998
30
0
11
6.7499999925494212
21
-2.1349999999999989
31
0
0
LINE
5
151
100
AcDbEntity
8
0
100
AcDbLine
10
6.7499999925494212
20
-2.1349999999999989
30
0
11
6.7499999925494212
21
-4.1349999999999998
31
0
0
LINE
5
152
100
AcDbEntity
8
0
100
AcDbLine
10
6.7499999925494212
20
-4.1349999999999998
30
0
11
7.7500000074505797
21
-4.1350000000000007
31
0
0
LINE
5
153
100
AcDbEntity
8
0
100
AcDbLine
10
7.7500000074505797
20
-4.1350000000000007
30
0
11
7.7500000074505815
21
-2.1349999999999989
31
0
0
LINE
5
154
100
AcDbEntity
8
0
100
AcDbLine
10
7.7500000074505815
20
-2.1349999999999989
30
0
11
8.9999999925494194
21
-2.1349999999999989
31
0
0
LINE
5
155
100
AcDbEntity
8
0
100
AcDbLine
10
8.9999999925494194
20
-2.1349999999999989
30
0
11
8.9999999925494194
21
-4.1350000000000016
31
0
0
LINE
5
156
100
AcDbEntity
8
0
100
AcDbLine
10
8.9999999925494194
20
-4.1350000000000016
30
0
11
10.000000149011612
21
-4.1350000000000016
31
0
0
LINE
5
157
100
AcDbEntity
8
0
100
AcDbLine
10
10.000000149011612
20
-4.1350000000000016
30
0
11
10.000000149011612
21
-2.1349999999999989
31
0
0
LINE
5
158
100
AcDbEntity
8
0
100
AcDbLine
10
10.000000149011612
20
-2.1349999999999989
30
0
11
11.250000020996749
21
-2.1349999999999989
31
0
0
LINE
5
159
100
AcDbEntity
8
0
100
AcDbLine
10
11.250000020996749
20
-2.1349999999999989
30
0
11
11.250000020996749
21
-4.1350000000000016
31
0
0
LINE
5
160
100
AcDbEntity
8
0
100
AcDbLine
10
11.250000020996749
20
-4.1350000000000016
30
0
11
12.25000003589791
21
-4.1350000000000016
31
0
0
LINE
5
161
100
AcDbEntity
8
0
100
AcDbLine
10
12.25000003589791
20
-4.1350000000000016
30
0
11
12.250000035897919
21
-2.1349999999999989
31
0
0
LINE
5
162
100
AcDbEntity
8
0
100
AcDbLine
10
12.250000035897919
20
-2.1349999999999989
30
0
11
13.500000201165676
21
-2.1349999999999989
31
0
0
LINE
5
163
100
AcDbEntity
8
0
100
AcDbLine
10
13.500000201165676
20
-2.1349999999999989
30
0
11
13.500000201165667
21
-4.1350000000000016
31
0
0
LINE
5
164
100
AcDbEntity
8
0
100
AcDbLine
10
13.500000201165667
20
-4.1350000000000016
30
0
11
14.500000216066837
21
-4.1350000000000016
31
0
0
LINE
5
165
100
AcDbEntity
8
0
100
AcDbLine
10
14.500000216066837
20
-4.1350000000000016
30
0
11
14.500000216066846
21
-2.1349999999999989
31
0
0
LINE
5
166
100
AcDbEntity
8
0
100
AcDbLine
10
14.500000216066846
20
-2.1349999999999989
30
0
11
15.750000019828141
21
-2.1350000000000047
31
0
0
LINE
5
167
100
AcDbEntity
8
0
100
AcDbLine
10
15.750000019828141
20
-2.1350000000000047
30
0
11
15.750000019828146
21
-4.1350000000000016
31
0
0
LINE
5
168
100
AcDbEntity
8
0
100
AcDbLine
10
15.750000019828146
20
-4.1350000000000016
30
0
11
16.750000034729332
21
-4.1350000000000016
31
0
0
LINE
5
169
100
AcDbEntity
8
0
100
AcDbLine
10
16.750000034729332
20
-4.1350000000000016
30
0
11
16.750000034729332
21
-1.1349999999999958
31
0
0
LINE
5
170
100
AcDbEntity
8
0
100
AcDbLine
10
1
20
-2.1349999999999998
30
0
11
1.0000000000000007
21
-1.1349999999999998
31
0
0
LINE
5
171
100
AcDbEntity
8
0
100
AcDbLine
10
0
20
-1.135
30
0
11
1.0000000000000007
21
-1.1349999999999998
31
0
0
LINE
5
172
100
AcDbEntity
8
0
100
AcDbLine
10
2.2500000000000027
20
-2.1349999999999993
30
0
11
2.2500000000000027
21
-1.1349999999999947
31
0
0
LINE
5
173
100
AcDbEntity
8
0
100
AcDbLine
10
2.2500000000000027
20
-1.1349999999999947
30
0
11
3.2500000000000027
21
-1.1349999999999949
31
0
0
LINE
5
174
100
AcDbEntity
8
0
100
AcDbLine
10
4.5000000670552254
20
-2.1349999999999998
30
0
11
4.4999999925494194
21
-1.1349999999999958
31
0
0
LINE
5
175
100
AcDbEntity
8
0
100
AcDbLine
10
5.5000000074505806
20
-1.1349999999999953
30
0
11
4.4999999925494194
21
-1.1349999999999958
31
0
0
LINE
5
176
100
AcDbEntity
8
0
100
AcDbLine
10
3.2500000000000027
20
-2.1349999999999998
30
0
11
3.2500000000000027
21
-1.1349999999999949
31
0
0
LINE
5
177
100
AcDbEntity
8
0
100
AcDbLine
10
5.5000000819563866
20
-2.1349999999999998
30
0
11
5.5000000074505806
21
-1.1349999999999953
31
0
0
LINE
5
178
100
AcDbEntity
8
0
100
AcDbLine
10
6.7499999925494212
20
-2.1349999999999989
30
0
11
6.7499999925494212
21
-1.1349999999999953
31
0
0
LINE
5
179
100
AcDbEntity
8
0
100
AcDbLine
10
6.7499999925494212
20
-1.1349999999999953
30
0
11
7.7500000074505797
21
-1.1349999999999933
31
0
0
LINE
5
180
100
AcDbEntity
8
0
100
AcDbLine
10
7.7500000074505797
20
-1.1349999999999933
30
0
11
7.7500000074505815
21
-2.1349999999999989
31
0
0
LINE
5
181
100
AcDbEntity
8
0
100
AcDbLine
10
8.9999999925494194
20
-2.1349999999999989
30
0
11
8.9999999925494194
21
-1.1349999999999936
31
0
0
LINE
5
182
100
AcDbEntity
8
0
100
AcDbLine
10
8.9999999925494194
20
-1.1349999999999936
30
0
11
10.000000007450581
21
-1.1349999999999909
31
0
0
LINE
5
183
100
AcDbEntity
8
0
100
AcDbLine
10
10.000000149011612
20
-2.1349999999999989
30
0
11
10.000000007450581
21
-1.1349999999999909
31
0
0
LINE
5
184
100
AcDbEntity
8
0
100
AcDbLine
10
11.250000020996749
20
-2.1349999999999989
30
0
11
11.250000020996749
21
-1.1349999999999958
31
0
0
LINE
5
185
100
AcDbEntity
8
0
100
AcDbLine
10
11.250000020996749
20
-1.1349999999999958
30
0
11
12.25000003589791
21
-1.1349999999999958
31
0
0
LINE
5
186
100
AcDbEntity
8
0
100
AcDbLine
10
12.25000003589791
20
-1.1349999999999958
30
0
11
12.250000035897919
21
-2.1349999999999989
31
0
0
LINE
5
187
100
AcDbEntity
8
0
100
AcDbLine
10
13.500000201165676
20
-2.1349999999999989
30
0
11
13.500000019828153
21
-1.1350000000000013
31
0
0
LINE
5
188
100
AcDbEntity
8
0
100
AcDbLine
10
14.500000034729329
20
-1.1349999999999991
30
0
11
13.500000019828153
21
-1.1350000000000013
31
0
0
LINE
5
189
100
AcDbEntity
8
0
100
AcDbLine
10
14.500000034729329
20
-1.1349999999999991
30
0
11
14.500000216066846
21
-2.1349999999999989
31
0
0
LINE
5
190
100
AcDbEntity
8
0
100
AcDbLine
10
15.750000019828141
20
-2.1350000000000047
30
0
11
15.750000019828141
21
-1.1349999999999958
31
0
0
LINE
5
191
100
AcDbEntity
8
0
100
AcDbLine
10
15.750000019828141
20
-1.1349999999999958
30
0
11
16.750000034729332
21
-1.1349999999999958
31
0
0
CIRCLE
5
192
100
AcDbEntity
8
0
100
AcDbCircle
10
9.5
20
-0.24999999999999223
30
0
40
0.10000000000000005
210
0
220
0
230
1
0
CIRCLE
5
193
100
AcDbEntity
8
0
100
AcDbCircle
10
11.75
20
-0.24999999999999223
30
0
40
0.10000000000000005
210
0
220
0
230
1
0
CIRCLE
5
194
100
AcDbEntity
8
0
100
AcDbCircle
10
14
20
-0.24999999999999223
30
0
40
0.10000000000000005
210
0
220
0
230
1
0
CIRCLE
5
195
100
AcDbEntity
8
0
100
AcDbCircle
10
16.25
20
-0.24999999999999223
30
0
40
0.10000000000000005
210
0
220
0
230
1
0
CIRCLE
5
196
100
AcDbEntity
8
0
100
AcDbCircle
10
7.25
20
-0.24999999999999223
30
0
40
0.10000000000000005
210
0
220
0
230
1
0
CIRCLE
5
197
100
AcDbEntity
8
0
100
AcDbCircle
10
4.9999999999999991
20
-0.24999999999999223
30
0
40
0.10000000000000005
210
0
220
0
230
1
0
CIRCLE
5
198
100
AcDbEntity
8
0
100
AcDbCircle
10
2.7499999999999982
20
-0.24999999999999223
30
0
40
0.10000000000000005
210
0
220
0
230
1
0
CIRCLE
5
199
100
AcDbEntity
8
0
100
AcDbCircle
10
0.49999999999999822
20
-0.24999999999999223
30
0
40
0.10000000000000005
210
0
220
0
230
1
0
ENDSEC
0
SECTION
2
OBJECTS
0
DICTIONARY
5
C
100
AcDbDictionary
3
ACAD_GROUP
350
D
3
ACAD_MLINESTYLE
350
17
0
DICTIONARY
5
D
100
AcDbDictionary
0
DICTIONARY
5
1A
330
C
100
AcDbDictionary
0
DICTIONARY
5
17
100
AcDbDictionary
0
ENDSEC
0
EOF
