0
SECTION
2
HEADER
9
$INSUNITS
70
5
9
$ACADVER
1
AC1014
9
$HANDSEED
5
FFFF
0
ENDSEC
0
SECTION
2
TABLES
0
TABLE
2
VPORT
5
8
100
AcDbSymbolTable
0
ENDTAB
0
TABLE
2
LTYPE
5
5
100
AcDbSymbolTable
0
LTYPE
5
14
100
AcDbSymbolTableRecord
100
AcDbLinetypeTableRecord
2
BYBLOCK
70
0
0
LTYPE
5
15
100
AcDbSymbolTableRecord
100
AcDbLinetypeTableRecord
2
BYLAYER
70
0
0
ENDTAB
0
TABLE
2
LAYER
5
2
100
AcDbSymbolTable
70
2
0
LAYER
5
50
100
AcDbSymbolTableRecord
100
AcDbLayerTableRecord
2
0
70
0
6
CONTINUOUS
0
ENDTAB
0
TABLE
2
STYLE
5
3
100
AcDbSymbolTable
70
1
0
STYLE
5
11
100
AcDbSymbolTableRecord
100
AcDbTextStyleTableRecord
2
STANDARD
70
0
0
ENDTAB
0
TABLE
2
VIEW
5
6
100
AcDbSymbolTable
70
0
0
ENDTAB
0
TABLE
2
UCS
5
7
100
AcDbSymbolTable
70
0
0
ENDTAB
0
TABLE
2
APPID
5
9
100
AcDbSymbolTable
70
2
0
APPID
5
12
100
AcDbSymbolTableRecord
100
AcDbRegAppTableRecord
2
ACAD
70
0
0
ENDTAB
0
TABLE
2
DIMSTYLE
5
A
100
AcDbSymbolTable
70
1
0
ENDTAB
0
TABLE
2
BLOCK_RECORD
5
1
100
AcDbSymbolTable
70
1
0
BLOCK_RECORD
5
1F
100
AcDbSymbolTableRecord
100
AcDbBlockTableRecord
2
*MODEL_SPACE
0
BLOCK_RECORD
5
1B
100
AcDbSymbolTableRecord
100
AcDbBlockTableRecord
2
*PAPER_SPACE
0
ENDTAB
0
ENDSEC
0
SECTION
2
BLOCKS
0
BLOCK
5
20
100
AcDbEntity
100
AcDbBlockBegin
2
*MODEL_SPACE
0
ENDBLK
5
21
100
AcDbEntity
100
AcDbBlockEnd
0
BLOCK
5
1C
100
AcDbEntity
100
AcDbBlockBegin
2
*PAPER_SPACE
0
ENDBLK
5
1D
100
AcDbEntity
100
AcDbBlockEnd
0
ENDSEC
0
SECTION
2
ENTITIES
0
LWPOLYLINE
5
100
100
AcDbEntity
8
0
100
AcDbPolyline
90
4
70
1
43
0.0
10
10.000000000000002
20
3.8100000000000001
10
10
20
-3.8100000000000001
10
-10
20
-3.8100000000000001
10
-9.9999999999999982
20
3.8100000000000001
0
LWPOLYLINE
5
101
100
AcDbEntity
8
0
100
AcDbPolyline
90
4
70
1
43
0.0
10
-9.2494999999999994
20
-1.4762500000000003
10
-5.2494999999999994
20
-1.4762499999999998
10
-5.2494999999999994
20
-1.1587499999999999
10
-9.2494999999999994
20
-1.1587499999999997
0
LWPOLYLINE
5
102
100
AcDbEntity
8
0
100
AcDbPolyline
90
4
70
1
43
0.0
10
-2.9994999999999981
20
-0.15874999999999986
10
-1.9994999999999981
20
-0.15874999999999986
10
-1.9994999999999981
20
0.15875000000000014
10
-2.9994999999999981
20
0.15875000000000014
0
LWPOLYLINE
5
103
100
AcDbEntity
8
0
100
AcDbPolyline
90
4
70
1
43
0.0
10
-7.4994999999999976
20
-0.15874999999999986
10
-6.4994999999999976
20
-0.15874999999999986
10
-6.4994999999999976
20
0.15875000000000014
10
-7.4994999999999976
20
0.15875000000000014
0
LWPOLYLINE
5
104
100
AcDbEntity
8
0
100
AcDbPolyline
90
4
70
1
43
0.0
10
3.7505000000000024
20
-0.15874999999999986
10
4.7505000000000024
20
-0.15874999999999986
10
4.7505000000000024
20
0.15875000000000014
10
3.7505000000000024
20
0.15875000000000014
0
LWPOLYLINE
5
105
100
AcDbEntity
8
0
100
AcDbPolyline
90
4
70
1
43
0.0
10
-9.2494999999999994
20
1.1587500000000002
10
-5.2494999999999994
20
1.1587499999999999
10
-5.2494999999999994
20
1.4762500000000001
10
-9.2494999999999994
20
1.4762500000000007
0
LWPOLYLINE
5
106
100
AcDbEntity
8
0
100
AcDbPolyline
90
4
70
1
43
0.0
10
-9.2494999999999994
20
-2.7937500000000002
10
-5.2494999999999994
20
-2.7937500000000002
10
-5.2494999999999994
20
-2.4762500000000003
10
-9.2494999999999994
20
-2.4762499999999998
0
LWPOLYLINE
5
107
100
AcDbEntity
8
0
100
AcDbPolyline
90
4
70
1
43
0.0
10
6.0005000000000024
20
-0.15874999999999986
10
7.0005000000000024
20
-0.15874999999999986
10
7.0005000000000024
20
0.15875000000000014
10
6.0005000000000024
20
0.15875000000000014
0
LWPOLYLINE
5
108
100
AcDbEntity
8
0
100
AcDbPolyline
90
4
70
1
43
0.0
10
-0.74949999999999695
20
-0.15874999999999986
10
0.25050000000000305
20
-0.15874999999999986
10
0.25050000000000328
20
0.15875000000000014
10
-0.74949999999999695
20
0.15875000000000014
0
LWPOLYLINE
5
109
100
AcDbEntity
8
0
100
AcDbPolyline
90
4
70
1
43
0.0
10
1.5005000000000037
20
-0.15874999999999986
10
2.5005000000000037
20
-0.15874999999999986
10
2.5005000000000037
20
0.15875000000000014
10
1.5005000000000037
20
0.15875000000000014
0
LWPOLYLINE
5
110
100
AcDbEntity
8
0
100
AcDbPolyline
90
4
70
1
43
0.0
10
-5.2494999999999994
20
-0.15874999999999984
10
-4.2494999999999994
20
-0.15874999999999984
10
-4.2494999999999994
20
0.15875000000000017
10
-5.2494999999999994
20
0.15875000000000017
0
LWPOLYLINE
5
111
100
AcDbEntity
8
0
100
AcDbPolyline
90
4
70
1
43
0.0
10
8.2505000000000024
20
-0.15874999999999986
10
9.2505000000000024
20
-0.15874999999999986
10
9.2505000000000024
20
0.15875000000000014
10
8.2505000000000024
20
0.15875000000000014
0
ENDSEC
0
SECTION
2
OBJECTS
0
DICTIONARY
5
C
100
AcDbDictionary
3
ACAD_GROUP
350
D
3
ACAD_MLINESTYLE
350
17
0
DICTIONARY
5
D
100
AcDbDictionary
0
DICTIONARY
5
1A
330
C
100
AcDbDictionary
0
DICTIONARY
5
17
100
AcDbDictionary
0
ENDSEC
0
EOF
